<svg xmlns="http://www.w3.org/2000/svg" viewBox="0 0 32 32" width="32" height="32">
  <defs>
    <linearGradient id="fg" x1="0" y1="0" x2="32" y2="32" gradientUnits="userSpaceOnUse">
      <stop offset="0%" stop-color="#6C3EF4"/>
      <stop offset="100%" stop-color="#A855F7"/>
    </linearGradient>
  </defs>
  <rect width="32" height="32" rx="8" fill="#fff"/>
  <path d="M4 24 C4 24 4 12 9.5 12 C11.5 12 13 14 16 16 C19 14 20.5 12 22.5 12 C28 12 28 24 28 24" stroke="url(#fg)" stroke-width="3.5" stroke-linecap="round" stroke-linejoin="round" fill="none"/>
  <path d="M8 24 C8 24 8 16 12 16 C13.5 16 14.2 17.5 16 19 C17.8 17.5 18.5 16 20 16 C24 16 24 24 24 24" stroke="url(#fg)" stroke-width="2.5" stroke-linecap="round" stroke-linejoin="round" fill="none" opacity="0.5"/>
</svg>
