<svg xmlns="http://www.w3.org/2000/svg" viewBox="0 0 1024 1024" width="1024" height="1024" role="img" aria-label="MockSetu">
  <title>MockSetu</title>
  <defs>
    <linearGradient id="msSquare" x1="0" y1="0" x2="1000.01" y2="0" gradientUnits="userSpaceOnUse">
      <stop offset="0" stop-color="#6C3EF4"/>
      <stop offset="1" stop-color="#A855F7"/>
    </linearGradient>
  </defs>
  <g transform="translate(102.40 322.87) scale(0.819192)" fill="url(#msSquare)" fill-rule="evenodd">
    <path d="M290.81 0.22C293.99 0.19 303.17 -0.13 309.19 0.07C315.19 0.28 320.97 0.64 326.87 1.46C332.76 2.28 338.89 3.55 344.56 4.97C350.21 6.39 355.85 8.21 360.81 9.96C365.76 11.73 369.21 13.07 374.28 15.55C379.35 18.02 385.58 21.25 391.22 24.82C396.85 28.38 403.36 33.2 408.1 36.95C412.83 40.7 415.36 43.1 419.63 47.32C423.88 51.54 429.43 57.3 433.68 62.26C437.92 67.22 441.63 72.35 445.05 77.07C448.45 81.78 450.85 85.14 454.15 90.57C457.43 95.99 460.7 101.36 464.81 109.62C468.91 117.88 474.7 130.1 478.76 140.09C482.83 150.09 485.91 159.61 489.17 169.6C492.43 179.59 496.51 194.63 498.3 200.01C500.08 205.38 499.85 201.86 499.85 201.86C499.85 201.86 499.33 205.74 501.33 199.45C503.31 193.15 508.42 174.46 511.81 164.08C515.21 153.72 517.91 146.29 521.67 137.22C525.44 128.15 530.76 116.98 534.4 109.66C538.03 102.34 539.31 99.91 543.45 93.31C547.59 86.73 553.8 77.22 559.21 70.14C564.63 63.06 570.78 56.26 575.95 50.85C581.14 45.43 585.69 41.51 590.32 37.64C594.93 33.78 599.8 30.37 603.68 27.67C607.57 24.97 608.82 24.02 613.65 21.42C618.48 18.82 625.36 14.93 632.65 12.07C639.94 9.2 649.27 6.18 657.41 4.25C665.53 2.33 673.07 1.21 681.44 0.54C689.81 -0.14 699.84 -0.1 707.61 0.21C715.39 0.51 720.55 0.98 728.1 2.34C735.65 3.71 745.39 6.06 752.93 8.4C760.48 10.73 765.96 12.8 773.37 16.36C780.79 19.91 790.81 25.66 797.43 29.74C804.05 33.84 808.05 36.89 813.11 40.9C818.19 44.9 823.05 49.25 827.87 53.76C832.68 58.25 836.86 62.21 842.02 67.88C847.18 73.55 853.9 81.55 858.82 87.81C863.74 94.07 867.06 98.89 871.52 105.48C876 112.07 880.79 119.27 885.65 127.39C890.49 135.51 896.24 145.92 900.61 154.17C904.97 162.41 907.13 166.68 911.84 176.81C916.54 186.95 924.34 204.36 928.81 214.96C933.27 225.56 934.86 230.17 938.64 240.41C942.41 250.66 947.47 264.52 951.46 276.41C955.47 288.3 958.88 299.29 962.64 311.77C966.42 324.25 970.34 337.43 974.09 351.3C977.83 365.17 981.19 378.63 985.1 394.99C989.01 411.35 995.27 439.19 997.55 449.46C999.85 459.73 998.73 455.11 998.86 456.59C998.98 458.07 998.31 458.37 998.31 458.37C998.31 458.37 1004.03 458.9 994.43 459.01C984.84 459.13 950.05 459.08 940.74 459.05C931.43 459.02 939.21 459.12 938.57 458.85C937.94 458.58 939.22 466.39 936.95 457.42C934.68 448.46 929.61 423.68 924.96 405.08C920.33 386.48 914.08 363.13 909.11 345.84C904.15 328.54 899.82 315.43 895.14 301.3C890.44 287.18 886.24 274.85 880.97 261.07C875.71 247.29 868.93 230.97 863.51 218.63C858.09 206.28 853.98 197.68 848.42 186.99C842.86 176.29 836.24 164.36 830.14 154.49C824.02 144.61 817.39 135.25 811.76 127.71C806.11 120.19 800.72 114.19 796.3 109.32C791.89 104.45 789.14 102.01 785.26 98.5C781.38 94.98 777.75 91.7 773.03 88.22C768.29 84.73 762.27 80.63 756.88 77.57C751.47 74.51 745.46 71.84 740.64 69.87C735.83 67.89 732.65 66.93 727.97 65.76C723.28 64.58 717.9 63.47 712.5 62.83C707.12 62.18 701.24 61.78 695.6 61.88C689.97 61.98 683.99 62.57 678.7 63.43C673.43 64.27 668.73 65.45 663.93 67C659.13 68.55 654.38 70.52 649.9 72.72C645.43 74.93 641.2 77.44 637.09 80.25C632.98 83.04 629.33 85.77 625.22 89.54C621.11 93.3 615.96 98.85 612.44 102.84C608.93 106.84 607.28 108.93 604.11 113.51C600.96 118.11 597.17 123.72 593.47 130.39C589.76 137.06 585.29 145.9 581.9 153.55C578.51 161.2 576.47 166.25 573.14 176.28C569.8 186.31 565.2 201.23 561.9 213.71C558.6 226.18 556 238.17 553.37 251.11C550.74 264.06 548.5 276.39 546.16 291.34C543.81 306.29 541.38 323.02 539.29 340.8C537.2 358.57 535.27 378.54 533.62 398C531.97 417.46 529.43 457.55 529.43 457.55C529.43 457.55 528.77 458.53 528.21 458.78C527.65 459.03 535.61 459.05 526.07 459.05C516.52 459.04 470.94 458.75 470.94 458.75C470.94 458.75 470.54 465.59 469.68 455.93C468.82 446.28 467.15 417.65 465.78 400.81C464.42 383.96 462.92 368.67 461.47 354.9C460.01 341.13 458.74 330.55 457.06 318.2C455.38 305.84 453.73 294.19 451.38 280.78C449.02 267.36 445.76 250.64 442.94 237.69C440.12 224.75 437.33 213.44 434.49 203.09C431.64 192.75 428.72 183.74 425.9 175.62C423.08 167.51 420.93 161.95 417.57 154.4C414.2 146.85 409.47 137.17 405.71 130.36C401.94 123.55 398.81 118.77 395.02 113.51C391.24 108.24 387.55 103.61 383.01 98.76C378.46 93.91 372.54 88.28 367.74 84.38C362.95 80.49 358.96 78.04 354.24 75.39C349.51 72.74 344.82 70.45 339.4 68.49C334 66.53 327.78 64.73 321.8 63.64C315.82 62.56 309.4 62.1 303.53 61.96C297.67 61.82 292.01 62.16 286.62 62.79C281.23 63.43 275.86 64.6 271.17 65.78C266.47 66.96 263.29 67.88 258.47 69.85C253.65 71.82 247.3 74.75 242.26 77.57C237.21 80.4 232.69 83.5 228.19 86.77C223.71 90.03 220.05 92.81 215.32 97.13C210.59 101.44 204.25 107.83 199.81 112.67C195.36 117.52 193.34 119.94 188.66 126.21C183.98 132.46 177.6 140.9 171.74 150.2C165.86 159.5 159.78 169.87 153.45 182C147.11 194.12 139.35 210.36 133.72 222.96C128.07 235.56 124.81 243.8 119.62 257.56C114.44 271.33 107.79 289.91 102.61 305.56C97.43 321.21 93.01 335.94 88.56 351.47C84.09 367.01 80.31 381.03 75.87 398.79C71.44 416.55 61.96 458.03 61.96 458.03C61.96 458.03 69.24 458.9 59.11 459.02C48.97 459.14 1.15 458.75 1.15 458.75L0.24 457.32C0.24 457.32 -0.7 460.73 1.11 452.34C2.93 443.95 7.75 421.48 11.13 406.99C14.51 392.5 17.07 381.62 21.38 365.38C25.7 349.15 31.92 326.54 37.02 309.6C42.13 292.65 47.31 277.39 52.03 263.74C56.74 250.08 60.38 240.13 65.32 227.66C70.27 215.17 76.03 201.32 81.69 188.85C87.36 176.37 93.77 163.4 99.31 152.8C104.84 142.19 108.79 135.06 114.88 125.26C120.96 115.45 128.89 103.41 135.84 93.99C142.79 84.57 149.47 76.49 156.56 68.73C163.65 60.98 171.42 53.56 178.37 47.43C185.32 41.31 191.08 36.85 198.27 32.02C205.45 27.18 213.95 22.19 221.48 18.41C229.01 14.64 236.04 11.86 243.46 9.35C250.88 6.84 258.23 4.84 266 3.32C273.76 1.8 285.94 0.78 290.08 0.26C294.21 -0.26 287.63 0.25 290.81 0.22Z"/>
    <path d="M294.34 111.83C296 111.78 300.71 111.51 303.53 111.63C306.36 111.74 308.6 112.03 311.3 112.52C314.02 113.01 317.21 113.76 319.81 114.56C322.41 115.37 324.43 116.18 326.92 117.36C329.39 118.53 332.31 120.11 334.68 121.63C337.06 123.15 339.03 124.7 341.14 126.49C343.25 128.26 345.12 129.95 347.33 132.33C349.55 134.72 351.42 136.47 354.45 140.77C357.47 145.09 362.53 152.91 365.5 158.19C368.48 163.49 370.03 167.27 372.3 172.5C374.56 177.72 376.35 181.45 379.12 189.56C381.89 197.67 386.54 212.47 388.9 221.18C391.25 229.9 393.24 241.84 393.24 241.84C393.24 241.84 393.64 243.49 390.88 239.17C388.11 234.86 380.99 222.42 376.64 215.95C372.3 209.48 369.24 205.51 364.79 200.34C360.32 195.16 354.83 189.36 349.87 184.93C344.92 180.5 339.74 176.66 335.06 173.73C330.37 170.81 325.26 168.76 321.76 167.38C318.26 165.99 316.47 165.85 314.02 165.41C311.57 164.96 309.38 164.74 307.05 164.7C304.72 164.66 302.25 164.81 300.06 165.16C297.85 165.5 295.82 166.08 293.83 166.78C291.84 167.48 290.14 168.21 288.13 169.34C286.13 170.46 284.02 171.77 281.8 173.52C279.57 175.28 277.09 177.51 274.76 179.87C272.44 182.24 271.2 182.98 267.84 187.71C264.47 192.43 259.17 200 254.59 208.22C249.99 216.44 244.89 226.58 240.29 237.05C235.7 247.5 231.34 258.97 227.01 270.98C222.67 282.98 218.55 295.45 214.3 309.1C210.04 322.74 207.92 328.03 201.48 352.85C195.04 377.67 175.69 458.03 175.69 458.03C175.69 458.03 183.32 458.87 172.84 458.99C162.35 459.11 112.76 458.76 112.76 458.76L112.03 458.03C112.03 458.03 109.59 466.25 112.07 455.89C114.55 445.52 122.93 411.27 126.9 395.83C130.86 380.4 132.01 376.35 135.87 363.28C139.73 350.19 144.41 334.09 150.06 317.37C155.71 300.65 163.77 278.24 169.79 262.94C175.79 247.62 181.47 235.51 186.08 225.51C190.69 215.51 193.52 210.2 197.44 202.92C201.35 195.63 205.33 188.62 209.56 181.79C213.8 174.94 218.95 167.31 222.83 161.9C226.72 156.47 229.31 153.39 232.87 149.28C236.42 145.17 240.15 141.02 244.15 137.24C248.14 133.47 252.84 129.56 256.84 126.61C260.84 123.65 264.16 121.56 268.16 119.53C272.16 117.5 276.59 115.67 280.83 114.4C285.06 113.13 291.32 112.33 293.57 111.9C295.82 111.47 292.68 111.87 294.34 111.83Z"/>
    <path d="M694.18 111.81C696.67 111.88 703.86 111.73 708.35 112.31C712.83 112.88 716.47 113.6 721.08 115.27C725.67 116.94 731.59 119.82 735.95 122.3C740.31 124.78 743.33 126.97 747.23 130.15C751.12 133.33 755.08 136.91 759.32 141.38C763.58 145.85 768.12 150.96 772.73 156.97C777.32 162.98 782.69 170.83 786.93 177.42C791.18 184.01 794.34 189.57 798.2 196.53C802.07 203.49 805.84 210.25 810.14 219.18C814.43 228.11 819.32 239.04 823.98 250.08C828.64 261.13 833.83 273.98 838.1 285.44C842.37 296.9 845.6 306.59 849.61 318.84C853.63 331.08 858.43 346.1 862.19 358.93C865.97 371.76 868.21 380.26 872.25 395.83C876.29 411.4 883.88 442.1 886.38 452.35C888.88 462.6 887.26 457.33 887.26 457.33L886.35 458.74C886.35 458.74 838.19 459.18 827.7 459.07C817.22 458.95 823.44 458.02 823.44 458.02C823.44 458.02 814.81 420.77 810.26 402.31C805.7 383.84 800.36 362.89 796.09 347.24C791.84 331.59 788.91 321.86 784.7 308.44C780.47 295.02 775.42 279.44 770.75 266.72C766.09 254 761.05 241.87 756.72 232.1C752.37 222.33 748.96 215.52 744.73 208.12C740.49 200.71 734.71 192.4 731.33 187.68C727.95 182.96 726.76 182.17 724.43 179.81C722.1 177.44 720.3 175.59 717.35 173.49C714.41 171.41 709.73 168.63 706.79 167.26C703.85 165.88 702.09 165.71 699.75 165.28C697.41 164.86 695.1 164.69 692.79 164.7C690.46 164.71 688.37 164.88 685.8 165.34C683.24 165.8 680.91 166.07 677.39 167.44C673.87 168.81 669.35 170.64 664.68 173.56C659.99 176.49 654.35 180.52 649.31 185C644.28 189.48 639.08 195.06 634.48 200.45C629.88 205.83 626.24 210.53 621.71 217.32C617.18 224.1 609.96 237.07 607.32 241.15C604.68 245.24 605.88 241.84 605.88 241.84C605.88 241.84 608.43 228.25 610.66 219.89C612.89 211.53 615.96 200.84 619.27 191.66C622.57 182.47 626.74 172.56 630.5 164.78C634.26 157 638.09 150.57 641.82 145C645.57 139.42 649.2 135.19 652.94 131.36C656.68 127.53 661.02 124.35 664.24 122.03C667.45 119.7 669.72 118.64 672.24 117.41C674.76 116.18 675.81 115.57 679.34 114.64C682.87 113.72 690.96 112.34 693.43 111.86C695.9 111.39 691.7 111.73 694.18 111.81Z"/>
  </g>
</svg>
